<svg viewBox="0 0 1187 400" xmlns="http://www.w3.org/2000/svg"><g><g><g><g><g><line x1="72.1240005493164" y1="377.95999908447266" x2="67.1240005493164" y2="377.95999908447266" style="visibility: inherit;" fill="rgb(0, 0, 0)" stroke="rgb(204, 204, 204)" stroke-width="1px"></line><line x1="72.1240005493164" y1="330.7149991989136" x2="67.1240005493164" y2="330.7149991989136" style="visibility: inherit;" fill="rgb(0, 0, 0)" stroke="rgb(204, 204, 204)" stroke-width="1px"></line><line x1="72.1240005493164" y1="283.4699993133545" x2="67.1240005493164" y2="283.4699993133545" style="visibility: inherit;" fill="rgb(0, 0, 0)" stroke="rgb(204, 204, 204)" stroke-width="1px"></line><line x1="72.1240005493164" y1="236.2249994277954" x2="67.1240005493164" y2="236.2249994277954" style="visibility: inherit;" fill="rgb(0, 0, 0)" stroke="rgb(204, 204, 204)" stroke-width="1px"></line><line x1="72.1240005493164" y1="188.97999954223633" x2="67.1240005493164" y2="188.97999954223633" style="visibility: inherit;" fill="rgb(0, 0, 0)" stroke="rgb(204, 204, 204)" stroke-width="1px"></line><line x1="72.1240005493164" y1="141.73499965667725" x2="67.1240005493164" y2="141.73499965667725" style="visibility: inherit;" fill="rgb(0, 0, 0)" stroke="rgb(204, 204, 204)" stroke-width="1px"></line><line x1="72.1240005493164" y1="94.48999977111816" x2="67.1240005493164" y2="94.48999977111816" style="visibility: inherit;" fill="rgb(0, 0, 0)" stroke="rgb(204, 204, 204)" stroke-width="1px"></line><line x1="72.1240005493164" y1="47.24499988555908" x2="67.1240005493164" y2="47.24499988555908" style="visibility: inherit;" fill="rgb(0, 0, 0)" stroke="rgb(204, 204, 204)" stroke-width="1px"></line><line x1="72.1240005493164" y1="0" x2="67.1240005493164" y2="0" style="visibility: inherit;" fill="rgb(0, 0, 0)" stroke="rgb(204, 204, 204)" stroke-width="1px"></line></g><g transform="translate(62.124000549316406, 0)"><text style="text-anchor: end; visibility: hidden; font-family: &quot;Helvetica Neue&quot;, sans-serif; font-size: 12px; font-weight: 200;" x="0" y="377.95999908447266" dx="0em" dy="0.3em" fill="rgb(50, 49, 63)" stroke="none" stroke-width="1px">3e+4</text><text style="text-anchor: end; visibility: inherit; font-family: &quot;Helvetica Neue&quot;, sans-serif; font-size: 12px; font-weight: 200;" x="0" y="330.7149991989136" dx="0em" dy="0.3em" fill="rgb(50, 49, 63)" stroke="none" stroke-width="1px">3.5e+4</text><text style="text-anchor: end; visibility: inherit; font-family: &quot;Helvetica Neue&quot;, sans-serif; font-size: 12px; font-weight: 200;" x="0" y="283.4699993133545" dx="0em" dy="0.3em" fill="rgb(50, 49, 63)" stroke="none" stroke-width="1px">4e+4</text><text style="text-anchor: end; visibility: inherit; font-family: &quot;Helvetica Neue&quot;, sans-serif; font-size: 12px; font-weight: 200;" x="0" y="236.2249994277954" dx="0em" dy="0.3em" fill="rgb(50, 49, 63)" stroke="none" stroke-width="1px">4.5e+4</text><text style="text-anchor: end; visibility: inherit; font-family: &quot;Helvetica Neue&quot;, sans-serif; font-size: 12px; font-weight: 200;" x="0" y="188.97999954223633" dx="0em" dy="0.3em" fill="rgb(50, 49, 63)" stroke="none" stroke-width="1px">5e+4</text><text style="text-anchor: end; visibility: inherit; font-family: &quot;Helvetica Neue&quot;, sans-serif; font-size: 12px; font-weight: 200;" x="0" y="141.73499965667725" dx="0em" dy="0.3em" fill="rgb(50, 49, 63)" stroke="none" stroke-width="1px">5.5e+4</text><text style="text-anchor: end; visibility: inherit; font-family: &quot;Helvetica Neue&quot;, sans-serif; font-size: 12px; font-weight: 200;" x="0" y="94.48999977111816" dx="0em" dy="0.3em" fill="rgb(50, 49, 63)" stroke="none" stroke-width="1px">6e+4</text><text style="text-anchor: end; visibility: inherit; font-family: &quot;Helvetica Neue&quot;, sans-serif; font-size: 12px; font-weight: 200;" x="0" y="47.24499988555908" dx="0em" dy="0.3em" fill="rgb(50, 49, 63)" stroke="none" stroke-width="1px">6.5e+4</text><text style="text-anchor: end; visibility: hidden; font-family: &quot;Helvetica Neue&quot;, sans-serif; font-size: 12px; font-weight: 200;" x="0" y="0" dx="0em" dy="0.3em" fill="rgb(50, 49, 63)" stroke="none" stroke-width="1px">7e+4</text></g><line x1="72.1240005493164" y1="0" x2="72.1240005493164" y2="377.95999908447266" fill="rgb(0, 0, 0)" stroke="rgb(204, 204, 204)" stroke-width="1px"></line></g></g><g transform="translate(72, 0)" clip-path="url(#clip_0)"><clipPath id="clip_0"><rect width="1114" height="377"></rect></clipPath><g><g><g><line x1="0" y1="0" x2="0" y2="377.95999908447266" fill="rgb(0, 0, 0)" stroke="rgb(60, 60, 60)" stroke-width="1px" opacity="0.25"></line><line x1="79.6339999607631" y1="0" x2="79.6339999607631" y2="377.95999908447266" fill="rgb(0, 0, 0)" stroke="rgb(60, 60, 60)" stroke-width="1px" opacity="0.25"></line><line x1="159.2679999215262" y1="0" x2="159.2679999215262" y2="377.95999908447266" fill="rgb(0, 0, 0)" stroke="rgb(60, 60, 60)" stroke-width="1px" opacity="0.25"></line><line x1="238.90199988228932" y1="0" x2="238.90199988228932" y2="377.95999908447266" fill="rgb(0, 0, 0)" stroke="rgb(60, 60, 60)" stroke-width="1px" opacity="0.25"></line><line x1="318.5359998430524" y1="0" x2="318.5359998430524" y2="377.95999908447266" fill="rgb(0, 0, 0)" stroke="rgb(60, 60, 60)" stroke-width="1px" opacity="0.25"></line><line x1="398.1699998038156" y1="0" x2="398.1699998038156" y2="377.95999908447266" fill="rgb(0, 0, 0)" stroke="rgb(60, 60, 60)" stroke-width="1px" opacity="0.25"></line><line x1="477.80399976457863" y1="0" x2="477.80399976457863" y2="377.95999908447266" fill="rgb(0, 0, 0)" stroke="rgb(60, 60, 60)" stroke-width="1px" opacity="0.25"></line><line x1="557.4379997253418" y1="0" x2="557.4379997253418" y2="377.95999908447266" fill="rgb(0, 0, 0)" stroke="rgb(60, 60, 60)" stroke-width="1px" opacity="0.25"></line><line x1="637.0719996861048" y1="0" x2="637.0719996861048" y2="377.95999908447266" fill="rgb(0, 0, 0)" stroke="rgb(60, 60, 60)" stroke-width="1px" opacity="0.25"></line><line x1="716.7059996468681" y1="0" x2="716.7059996468681" y2="377.95999908447266" fill="rgb(0, 0, 0)" stroke="rgb(60, 60, 60)" stroke-width="1px" opacity="0.25"></line><line x1="796.3399996076312" y1="0" x2="796.3399996076312" y2="377.95999908447266" fill="rgb(0, 0, 0)" stroke="rgb(60, 60, 60)" stroke-width="1px" opacity="0.25"></line><line x1="875.9739995683942" y1="0" x2="875.9739995683942" y2="377.95999908447266" fill="rgb(0, 0, 0)" stroke="rgb(60, 60, 60)" stroke-width="1px" opacity="0.25"></line><line x1="955.6079995291573" y1="0" x2="955.6079995291573" y2="377.95999908447266" fill="rgb(0, 0, 0)" stroke="rgb(60, 60, 60)" stroke-width="1px" opacity="0.25"></line><line x1="1035.2419994899205" y1="0" x2="1035.2419994899205" y2="377.95999908447266" fill="rgb(0, 0, 0)" stroke="rgb(60, 60, 60)" stroke-width="1px" opacity="0.25"></line><line x1="1114.8759994506836" y1="0" x2="1114.8759994506836" y2="377.95999908447266" fill="rgb(0, 0, 0)" stroke="rgb(60, 60, 60)" stroke-width="1px" opacity="0.25"></line></g><g><line x1="0" y1="377.95999908447266" x2="1114.8759994506836" y2="377.95999908447266" fill="rgb(0, 0, 0)" stroke="rgb(60, 60, 60)" stroke-width="1px" opacity="0.25"></line><line x1="0" y1="330.7149991989136" x2="1114.8759994506836" y2="330.7149991989136" fill="rgb(0, 0, 0)" stroke="rgb(60, 60, 60)" stroke-width="1px" opacity="0.25"></line><line x1="0" y1="283.4699993133545" x2="1114.8759994506836" y2="283.4699993133545" fill="rgb(0, 0, 0)" stroke="rgb(60, 60, 60)" stroke-width="1px" opacity="0.25"></line><line x1="0" y1="236.2249994277954" x2="1114.8759994506836" y2="236.2249994277954" fill="rgb(0, 0, 0)" stroke="rgb(60, 60, 60)" stroke-width="1px" opacity="0.25"></line><line x1="0" y1="188.97999954223633" x2="1114.8759994506836" y2="188.97999954223633" fill="rgb(0, 0, 0)" stroke="rgb(60, 60, 60)" stroke-width="1px" opacity="0.25"></line><line x1="0" y1="141.73499965667725" x2="1114.8759994506836" y2="141.73499965667725" fill="rgb(0, 0, 0)" stroke="rgb(60, 60, 60)" stroke-width="1px" opacity="0.25"></line><line x1="0" y1="94.48999977111816" x2="1114.8759994506836" y2="94.48999977111816" fill="rgb(0, 0, 0)" stroke="rgb(60, 60, 60)" stroke-width="1px" opacity="0.25"></line><line x1="0" y1="47.24499988555908" x2="1114.8759994506836" y2="47.24499988555908" fill="rgb(0, 0, 0)" stroke="rgb(60, 60, 60)" stroke-width="1px" opacity="0.25"></line><line x1="0" y1="0" x2="1114.8759994506836" y2="0" fill="rgb(0, 0, 0)" stroke="rgb(60, 60, 60)" stroke-width="1px" opacity="0.25"></line></g></g></g><g><g><line x1="0" y1="661.4299983978271" x2="1114.8759994506836" y2="661.4299983978271" fill="rgb(0, 0, 0)" stroke="rgb(153, 153, 153)" stroke-width="1.5px"></line></g></g><g><g><line x1="79.6339999607631" y1="0" x2="79.6339999607631" y2="377.95999908447266" fill="rgb(0, 0, 0)" stroke="rgb(153, 153, 153)" stroke-width="1.5px"></line></g></g><g><g><g><g><g><path style="fill: none;" stroke="rgb(255, 112, 67)" stroke-width="2px" d="M80.30292556043352,88.50719564889147L80.35070596040998,207.21204889944494L80.76480276020595,290.91340471183213L81.13111916002546,287.568004223883L82.29377555945261,283.464590662816L83.28123715896606,279.853867683476L83.36087115892683,280.4319996962047L83.69533395876202,274.8589615331946L83.98201635862078,265.46054874005995L84.53945435834612,260.73475118302395L84.57130795833042,252.19906910199666L84.69872235826764,245.83791677620806L87.18330315704347,246.08288037008828L88.17076475655692,253.1806258050718L88.85561715621948,262.6329976123095L88.96710475616455,276.4212815178622L89.73159115578788,285.44013071404606L89.93863955568587,287.2976165573195L91.00573515516008,285.56601361245464L91.1331495550973,286.0244615538078L92.40729355446952,283.74994378814625L92.50285435442244,281.7512450359136L92.9488047542027,281.41696342806625L95.09892275314331,283.55022568874983L95.78377515280589,283.1507400433229L96.61196875239781,285.3275381362773L97.21718715209961,289.13756738925946L98.42762395150321,290.3825787015967L99.71769475086757,292.44557149453306L100.59366875043595,288.0754888536536L100.64144915041243,290.7169069010228L100.86442435030257,292.72952779944006L100.92813155027117,292.52472072265715L101.6926179498945,291.95187791564484L101.80410554983956,288.2369949132989L102.50488474949428,290.6064663110061L102.98268874925887,294.4078325192228L104.35239354858399,291.0250847862462L104.86205114833287,288.00358433888607L106.5662187474932,288.63308457555587L107.25107114715576,288.6200715991849L107.29885154713222,291.1248073664394L109.00301914629254,296.0025318160542L109.5286035460336,296.65664770277374L110.1656755457197,298.6357308227169L110.64347954548427,301.1093467811148L112.06096474478585,300.94817599846306L113.01657274431501,299.77352894639296L114.65703314350672,298.007669170396L115.66042154301233,295.9775607032224L116.37712754265922,296.7331360807866L117.68312514201574,296.52041875899147L118.43168474164689,299.5158634812773L118.70244034151351,299.6313429743264L118.7342939414978,299.13254423068355L118.81392794145856,302.7711027014361L119.21209794126239,302.5543540135553L119.22802474125454,301.46077912601874L119.41914634116037,302.31375640010936L119.49878034112113,304.1270504767237L119.96065754089355,304.69763892596967L122.39745793969291,305.0538299193345L123.2734319392613,305.7082399433747L126.88881553747994,304.9992990462059L128.01961833692278,300.7462276081674L128.06739873689924,300.55509111243873L129.97861473595756,301.7663616946952L131.0775639354161,301.8641601839257L131.33239273529054,302.599880298951L131.34831953528268,300.71662484575575L132.27207393482755,303.2520918865546L135.05926393345425,304.4250517847585L137.2571623323713,305.0420564104686L137.2890159323556,307.1845270962544L138.08535593196325,306.4343735727275L139.2161587314061,307.1914714822557L140.3788151308332,306.54053600474674L140.4903027307783,307.18560725868474L142.19447032993864,307.19211755075986L142.64042072971887,306.8490851815752L143.9145647290911,307.33313479983434L144.90202632860456,307.3821151576993L146.46285272783553,308.51707213233044L147.036217527553,308.25221625637425L148.38999552688597,307.9716680627648L149.71191992623466,307.9510083066627L151.1771855255127,309.26551381969466L151.44794112537932,309.9514647555873L153.91659512416294,309.71933113452707L153.98030232413157,310.53777106425383L154.10771672406878,311.2124377221086L155.8915183231899,312.43059197117844L156.11449352308,313.3607741557094L156.7197119227818,312.66544072672525L157.57975912235804,313.12571600584096L158.8061227217538,312.3318038450135L160.09619352111818,313.68537753828605L160.9562407206944,312.9269145108776L161.4021911204747,313.9348590209904L164.7627459188189,313.8531745957738L164.985721118709,313.762169535833L165.95725591823032,312.02227811369494L168.01181311721803,312.64138700638597L170.08229711619788,314.03370267604106L170.78307631585258,312.84614451162037L172.13685431518556,312.9728895853925L173.0287551147461,313.9494754951217L173.14024271469117,313.47645999975964L173.71360751440866,314.1767292101748L175.03553191375732,314.2574735756459L177.28121071265085,314.6601137602255L178.38015991210938,314.61593370252206L178.68276911196025,315.23204802181243L179.79764511141096,316.38367490239943L180.16396151123047,317.524445114205L181.18327671072825,318.37673104795834L183.4767359095982,316.6251342712037L184.33678310917446,316.02066164272367L184.79866030894686,315.7578165320339L186.27985270821708,316.0507055714607L186.32763310819354,314.73263539415336L186.51875470809938,315.4405817149599L188.79628710697722,314.95274252479726L190.58008870609828,316.20811241773595L192.93725510493687,316.6765802292651L193.59025390461514,316.3930981024186L196.07483470339093,316.76464561373007L197.20563750283378,315.76782741928866L198.28865990230014,315.6524833596102L198.44792790222166,315.59413123548796L198.49570830219812,315.90339057262076L198.73461030208043,316.1824380795784L199.26019470182146,317.8128164696746L202.15887230039323,315.4897266123576L203.67191829964773,316.051850482986L203.83118629956925,315.3589750482853L204.3886242992946,315.42585010150333L206.90505869805475,315.4692408200134L208.09956869746617,316.05051118029286L209.91522389657155,316.4419411436907L210.56822269624985,315.8474712809551L212.82982829513548,316.15458208455266L212.90946229509626,316.320027933186L213.05280349502561,315.9279636483105L214.53399589429583,315.73895647017156L214.97994629407611,315.87917420208L215.13921429399764,316.84478672786355L216.62040669326782,316.8756975527008L217.161917893001,316.460666876786L221.0321302910941,316.9245358438178L221.49400749086655,317.32100293115053L221.82847029070174,317.8700715994896L221.93995789064678,316.69353779052756L222.86371229019164,316.0650772993521L227.11616788809638,315.6226889537826L228.00806868765693,316.586010233236L228.51772628740585,316.540912815335L229.90335788672311,316.9509518541061L230.42894228646415,317.19076636465593L231.79864708578927,316.30342642614164L232.00569548568726,316.6715057408456L233.43910748498098,316.55034587468396L233.8054238848005,316.5754031347296L234.09210628465922,316.29523628619796L236.40149228352138,315.8889488285337L237.42080748301913,316.0291523768825L240.23985108163015,316.45617467431674L243.29779668012347,316.04732500695405L243.40928428006853,315.5862130483424L245.25679307915823,316.26257271509445L246.53093707853046,316.09013841617207L247.215789478193,316.6745202715295L248.569567477526,317.70313244304896L249.0632982772827,317.15885336876147L249.31812707715716,316.42628264686937L250.22595467670985,317.0030408058106L250.95858747634887,317.2420467497668L250.97451427634104,318.09715567002763L251.32490387616838,317.8867846779775L252.2964386756897,318.57048051219243L252.43977987561905,317.53724591756367L253.26797347521102,317.77922262135957L253.31575387518745,316.8723430316589L253.92097227488927,317.575400639334L254.28728867470878,317.66887877454883L254.41470307464598,317.1770011653838L255.14733587428503,316.38197606666006L256.4533334736415,317.2143195859547L256.7559426734924,316.60512646216114L257.9823062728882,316.9716481002558L258.96976787240163,317.35586595377015L261.5021290711539,317.67211417906526L262.34624947073803,317.699149226787L262.6647854705811,316.90784705878394L263.15851627033777,316.38127689858646L263.3018574702671,315.22737528974574L263.84336867000036,314.9595994254406L265.14936626935685,314.62341693206776L265.7386578690665,315.2620534716395L266.9172410684858,315.36301055097215L268.73289626759123,315.84083567381845L270.26186906683785,315.3161669586681L270.3415030667986,314.9900181139424L270.9148678665161,314.46873005195584L271.40859866627284,314.23411951905763L272.95349826551166,313.96423112156L273.3675950653076,314.2239593492576L273.6861310651507,314.41156668344945L275.37437186431885,314.9875878236632L277.20595386341637,315.0791280410888L278.0500742630005,315.353380668851L281.442482661329,314.93020089036685L284.7234034597124,314.733867729764L285.7108650592259,314.90801361615996L286.95315545861376,315.51777856857336L287.2239110584804,314.98037434041015L287.6539346582685,315.5126194131292L287.98839745810375,316.0490668646148L288.17951905800953,315.5741784670153L288.4184210578918,315.5421689970729L290.4889050568717,315.4817183378732L293.08497345559255,315.58358246213857L293.1486806555612,316.20374210497135L294.70950705479214,316.1238519240171L295.37843265446253,315.871681654512L296.1906994540623,315.8251524393088L296.55701585388186,315.680792574508L297.49669705341887,315.614639989076L299.58310785239087,315.6539424681726L300.7616910518101,315.79873814943437L303.88334385027207,315.6164976170326L306.12902264916556,316.1510966518905L307.1801914486477,315.9042213964168L307.2916790485927,316.2585316960717L307.7057758483887,316.29336599171546L307.99245824824743,316.46771404012514L308.93213944778444,316.4541866476994L309.7284794473921,316.85377370305605L312.67493744594026,316.91401334025335L312.77049824589324,317.13843455376804L313.2483022456578,316.67514302274355L313.3916434455872,316.65597607638523L313.5509114455087,316.4756489151628L315.01617704478673,317.2262965525977L315.1595182447161,317.19290120315486L315.4939810445513,317.4279210701695L316.51329624404906,317.4807360541145L316.81590544389996,317.9054527642719L319.9694118423462,317.44424485740313L321.40282384163993,317.3201264488944L322.77252864096505,317.7547176587433L323.6962830405099,318.10064739402844L326.0693762393406,318.4376912116396L326.10122983932496,318.32119298714036L326.61088743907385,318.6065368376559L327.10461823883054,318.44845781428126L330.3218318372454,317.82639165230927L330.704075037057,317.7126476104917L330.8474162369864,317.7160737121878L331.72339023655485,317.81773561419175L334.35131223526,317.81360600775935L335.9758458344596,318.3209201225113L336.31030863429476,318.3655612755243L338.4285730332511,318.27666174261475L339.5753026326861,318.6704017022705L339.9256922325134,319.28804054956214L340.19644783238004,319.65976972610895L340.92908063201907,319.51140553795636L342.50583383124217,319.86866340915634L345.56377942973546,319.0392537787722L347.34758102885655,319.6304513068303L348.1120674284799,319.3311330759098L348.7809930281503,319.4925754950744L351.44076862683977,319.1095895409889L351.93449942659646,319.3625572917182L354.19610502548215,319.5499289508859L354.7216894252232,319.3944318254485L355.0402254250663,318.8847745458013L355.43839542487007,318.92949593343525L355.78878502469746,318.7424518816274L356.83995382417953,319.17556401031163L357.4610990238735,318.9031698101417L357.62036702379504,318.3384026963111L359.03785222309654,318.0920546246957L359.2608274229867,317.3186274915414L359.7227046227591,317.5611973098718L359.8501190226964,317.68223874233314L360.3119962224688,317.89473341802835L361.8887494216919,317.36887164346297L365.5678402198792,317.3358794713593L366.0137906196594,317.4802788117494L366.60308221936907,317.62049729605127L367.1605202190944,317.49026251913926L367.35164181900024,317.45835826216864L368.370957018498,317.1506255761635L370.52107501743865,317.314159443289L371.3811222170148,317.72142500898934L373.49938661597116,317.9197016829191L373.51531341596336,318.0201616177016L375.7450654148647,316.9982367113747L377.67220821391516,317.02225284185766L377.7836958138602,316.59149170537455L379.7745458128793,316.7922230495784L381.57427421199253,316.35242968298314L382.3228338116237,316.22192377706153L383.0076862112863,316.1561911846737L384.09070861075264,316.2329044789033L384.9348290103367,316.4417524190023L386.5593626095363,316.35392530585926L390.6047698075431,316.1575138969831L390.700330607496,316.390663224863L392.43635180664063,316.49130656918L392.65932700653076,316.59497528343644L393.8856906059265,316.427781564499L393.98125140587945,316.69174046054457L395.35095620520457,316.4235631196774L395.71727260502405,317.05180510744987L396.8321486044747,316.52397359754275L397.18253820430215,316.2260435670279L397.7081226040432,315.90626765296463L398.0903658038548,315.3441072133625L398.7274378035409,315.4253922305628L399.01412020339967,315.4183196437482L399.1096810033526,314.75263288737017L399.157461403329,314.6279769556469L400.36789820273265,314.27734861372744L400.38382500272473,314.64061048521216L401.13238460235596,314.6816514988385L401.6261154021127,314.683636729716L402.05613900190076,314.4295786934629L402.1039194018773,314.7716915594523L402.183553401838,314.6331860790931L403.3143562012808,314.73937072009267L404.26996420081,314.6618747318838L405.17779180036274,314.64001784655176L405.89449780000956,314.7472652035361L406.54749659968786,314.17689636822536L406.75454499958585,314.0920167689656L406.770471799578,314.6300849370287L407.1208613994054,314.8901541171767L407.3756901992798,314.56762970191085L409.47802779824394,314.33324044827117L410.5769769977025,313.90065396356596L410.62475739767893,314.11634881384197L410.6406841976711,314.0528407608504L411.40517059729444,314.47115255663937L411.78741379710607,314.5099791014473L413.8897513960702,314.1402411001122L415.3709437953404,314.3664558045662L416.3902589948382,313.8171102876981L417.42550099432805,314.04656618471245L417.79181739414764,313.9827367820104L419.1296685934884,314.1108205924754L419.1774489934649,313.5118705664119L419.2570829934256,313.1384525307558L420.32417859289984,313.0971178986551L420.61086099275866,313.35740153238174L421.8053709921701,313.8881301017811L422.42651619186404,314.1175303037664L424.94295059062415,313.61624010557796L425.62780299028674,313.81110015897576L426.75860578972953,313.0341772989491L427.1727025895255,312.79564035451347L427.5071653893607,312.6398611185368L427.6027261893136,312.6070448801788L430.1191605880737,312.33450527144373L433.92566578619824,311.9343653862801L434.6742253858294,312.2892162438451L435.27944378553116,312.320596741604L435.7253941853114,312.2885815966926L437.54104938441685,312.32504685283544L438.0984873841422,312.4242535033753L438.68777898385184,312.27383746244277L440.13711778313774,312.1513443410004L442.20760178211754,312.61953038621016L443.402111781529,312.6726650650255L444.83552378082277,312.50726212487587L444.8833041807992,312.59680882011673L447.28825097961425,312.262391865243L448.14829817919053,312.7233668353961L448.30756617911203,312.7110544514351L448.8490773788452,312.58333868009873L449.0083453787667,312.5380909172236L449.4224421785627,312.59671402362414L450.1391481782096,313.07738138081464L450.5054645780291,313.3448209942035L451.69997457744057,313.5218511659251L452.75114337692264,313.57014959700865L454.5508717760358,313.74029656422726L455.33128497565133,313.61130977849984L456.62135577501573,313.7128252101628L456.79655057492937,313.6052157816939L457.1150865747724,313.46712082494497L458.27774297419955,313.86701614276376L460.8897381729126,313.61732938513273L463.13541697180614,313.66090441931306L463.75656217150004,313.838371758679L464.2184393712725,313.88849920604355L465.60407097058976,313.8623495064954L466.36855737021307,313.98666507648403L466.4004109701974,313.8987327099878L467.0056293698992,314.3503229860118L467.3719457697187,314.3612088626639L468.50274856916155,314.42204793794724L470.74842736805505,314.6820178884837L471.76774256755283,314.73245357000854L473.3285689667838,314.8278480073215L473.45598336672106,314.91873055379654L476.2272465653556,315.01836080449516L476.7528309650966,315.12649182029133L477.9314141645159,315.000357226309L478.55255936420986,314.88214770611427L479.922264163535,315.29930869264746L481.48309056276594,315.42052931488575L481.6901389626639,315.45230984681314L481.8334801625933,315.2877777707752L483.09169736197333,315.40437680468295L484.03137856151034,314.997180244116L485.8470337606158,315.2973552813314L486.08593576049805,315.37246472649485L487.3441529598781,315.46443872103083L488.72978455919537,315.56405238745054L490.7365613582066,315.54583935324837L491.2939993579319,315.79187796789824L492.47258255735125,315.9128657354347L494.4475057563782,315.6739062338992L494.78196855621337,315.7276882441772L495.1801385560172,316.0072802066891L496.199453755515,315.8428591690344L496.4224289554051,316.0067978695117L498.3814253544399,315.8259852591483L498.55662015435354,316.0861243675771L500.1493001535688,316.41101934405964L501.21639575304306,316.8222708905593L504.40175575147356,316.53510410978697L506.424459350477,315.90966870111674L506.4403861504691,315.6329433596892L506.9022633502415,315.78825434752684L506.9341169502258,316.0254350008192L508.5108701494489,316.27261196526496L511.9192053477696,315.7127155099499L512.0147661477225,315.86591251231766L512.1103269476755,315.42681188056946L512.174034147644,315.21340176198294L512.1899609476362,315.1500358136047L514.0215429467337,315.21312743296096L517.700633744921,314.8903530857733L519.261460144152,315.0849562287953L519.4207281440735,315.02967266875237L519.5322157440186,314.5271650974366L519.8188981438773,314.5038837784698L521.4275049430847,314.1894192115944L522.7972097424098,314.4328105385542L524.2465485416957,313.77379320591734L524.2784021416801,313.9308810499856L524.7880597414289,314.0049828240555L525.0747421412877,313.8788702547067L529.5820265390669,313.69942190632906L529.9961233388628,313.4219695383247L530.6969025385175,313.58381647954104L532.5603381375994,313.77125156408346L532.7673865374974,313.67368970659436L534.2326521367754,313.75535807442213L534.6945293365479,313.88094103370486L535.3156745362418,313.56870891440536L541.0333957334245,313.47802197733904L541.4474925332205,312.79434278162216L541.7978821330479,312.606555270303L542.1004913328989,312.49466111501715L542.4986613327026,312.5451069129725L542.7534901325771,312.74612837351066L542.9446117324829,312.56850298471556L544.7124865316118,312.7644260484061L545.6999481311253,312.6732950289264L549.0127225294931,312.6891454721053L549.1242101294381,313.08483585788576L549.2675513293675,312.99640720552804L550.0638913289752,313.20082476283824L550.1116717289516,313.3069533066422L550.4461345287867,312.9756369983871L550.9398653285435,313.09332414171234L551.2424745283944,313.3180934876881L553.4085193273272,313.3319030037944L554.6985901266916,313.43001037517416L554.7145169266837,313.2318619056108L557.4379997253418,313.2904341908952L557.5176337253026,313.37383895761826L557.9317305250986,313.49233675413666L558.6643633247376,313.28635528781194L558.9032653246198,313.48885379075483L560.2092629239764,313.8410370056953L561.3082121234348,313.74670474107427L561.9612109231132,313.3812696083934L562.6460633227757,313.30761176442934L564.7484009217399,313.07785529232535L564.9235957216534,312.8631303234562L566.5481293208531,312.95082260538413L567.1852013205392,313.128512401421L568.6823205198015,313.27525999576693L568.9052957196916,313.66404137885183L569.1919781195505,313.51414137385444L574.1929933170863,313.4144546267929L575.0371137166704,313.43706372477806L579.8310805143084,313.42078996462897L580.420372114018,313.21800517785266L584.4498525120326,313.39124771402953L584.8639493118286,313.51564111766953L586.2336541111538,313.60753061284987L587.2688961106436,313.1595690177662L587.3803837105887,313.29978392863865L587.5077981105259,313.2761899503972L588.2722845101492,313.4337376153216L588.4156257100786,313.41929385073246L589.3553069096157,313.4259395477868L589.5623553095136,313.2824807552768L592.0628629082817,313.31504355608365L592.5884473080226,313.02307279803426L593.257372907693,313.13862582834685L596.2197577062335,313.0581808941609L597.7168769054957,312.98671705682455L597.9239253053938,312.97590238073235L599.0228745048523,312.98000773537376L599.7555073044914,312.8086293186322L600.5359205041068,312.6647424185671L601.4278213036673,312.81137526255907L603.5301589026315,312.95857397954614L603.6575733025687,312.5171298420529L605.250253301784,312.3714145572863L605.4413749016899,312.1822946325281L605.7599109015329,312.3032428631791L607.6392733006069,312.22844381160144L608.069296900395,312.29475058453124L608.1011505003793,312.26751514033174L609.534562499673,312.4448133490065L610.6494384991238,312.4032980737961L611.0794620989118,311.9287368794994L611.1909496988569,312.0285600792742L611.6369000986372,312.1695612526773L613.8029448975699,312.30958773796806L615.2682104968479,312.1635345586943L616.8131100960868,312.3980018841382L616.9564512960161,312.6146699203349L617.1475728959219,312.698999168261L617.4501820957729,312.96021736990997L617.7209376956395,312.9475601279165L618.5809848952158,313.14083902647917L618.7721064951215,313.62262055502754L619.1702764949252,313.77517399321823L619.7595680946349,313.60880393771805L621.4159552938189,313.584458049467L621.7185644936698,313.54434660831464L621.8300520936149,313.42205694693655L622.562684893254,313.506212779768L623.3908784928459,313.54113442768306L623.4386588928223,313.8321253417389L626.9107012911116,313.76238140433395L627.2451640909468,313.81344248945766L628.1211380905152,313.4434528892331L629.5067696898324,313.6566162455201L629.5226964898245,313.7538260038918L630.1279148895264,313.81166756363314L630.6853528892517,313.9812052680599L630.8286940891811,313.9065156748434L633.6158840878078,313.7597935459687L635.1289300870623,313.50251041484546L638.330216885485,313.4837965123299L638.9035816852024,313.4948204411935L639.8910432847159,313.4495202504226L641.1174068841117,313.34510644680086L642.3756240834917,313.4662961514467L642.7100868833269,313.50121380244514L642.8375012832641,313.3659701158447L643.0445496831621,313.7270795996835L643.0764032831464,313.5728185485209L644.7327904823304,313.41233622040295L644.7646440823146,313.72275704045035L646.1980560816085,313.84176656410426L649.3515624800546,313.93892932079615L649.4630500799997,314.21114344106036L650.5142188794817,314.2225319365894L650.5938528794425,314.09925544159216L652.2502400786265,314.0042113282219L652.520995678493,313.54986781667236L653.5880912779672,313.6855131330242L653.9066272778102,314.01776352977976L655.6107948769705,314.17635929298126L656.6778904764448,313.98971622905674L656.916792476327,314.2125624784636L657.1716212762016,313.97085964173857L657.3786696760995,313.81240510394144L657.9361076758249,313.8183458175979L658.3502044756209,314.01749167458263L662.0611488737924,314.26468542516346L663.0167568733216,314.38210048966437L663.4945608730861,314.1777037200973L663.7971700729371,314.0339159674858L665.2146552722386,313.90684069014884L665.8358004719325,314.17375926541933L665.8995076719012,314.16549645134705L666.0428488718305,314.011770903621L666.5365796715872,313.81968417089763L667.4444072711399,313.7305740425844L669.7697200699943,313.9686869781751L671.6172288690839,314.2247576169365L672.142813268825,314.38148231127366L673.8788344679697,314.26358045308837L676.1722936668397,314.4965792688238L676.7138048665728,314.3342551002591L681.0936748644148,314.26469900703563L681.7785272640773,313.99221941094396L682.8774764635358,313.74278883647713L687.9103452610561,313.65662161558635L688.7863192606245,313.7301888564656L689.0252212605068,313.63735684871176L690.6656816596985,313.3745075805356L691.8442648591177,313.45450014324024L692.0990936589922,313.2184975078744L692.2742884589059,313.5521248592001L692.8157996586391,313.87125345765867L694.0899436580113,314.0125069329657L695.0614784575326,314.04065905266407L695.0774052575247,313.9854703587838L696.0011596570697,314.26001631672995L696.3196956569127,314.09602838918926L697.0045480565751,314.24266429730164L698.230911655971,314.1281925416377L700.4765904548644,313.95074236110605L700.8588336546762,314.0191124007147L703.024878453609,314.0851903066239L704.5538512528556,314.2017271733405L705.4935324523926,314.21676268490853L705.6687272523063,314.36060248082345L710.1919384500776,314.4076535428935L711.9598132492065,314.2184413306559L712.4057636489869,314.49004618546485L713.2180304485865,314.555866158402L714.7629300478254,314.53981606296946L715.2566608475821,314.36059097527817L715.336294847543,314.47865623532266L715.6070504474095,314.21157917041717L717.0245356467111,314.41953342023805L720.2736028451102,314.5321326575683L721.4203324445451,314.5238954010549L724.4782780430385,314.757860790432L724.6693996429443,315.0354776413575L725.1790572426933,315.1232143312618L725.6250076424735,315.134724886396L727.0106392417908,315.16563660859686L727.1699072417123,314.93485453102244L727.2654680416653,315.1214649247869L727.3291752416337,314.62354200129204L727.8229060413905,314.5346491335464L727.8547596413748,314.42850899079343L728.077734841265,314.3645193953803L728.1732956412179,314.7211061449553L729.335952040645,314.5863836627948L733.2698716387067,314.52950168309644L734.6714300380162,314.71300643945705L735.0855268378122,314.8821359404944L736.5189388371059,314.76805976896713L736.9489624368939,314.6115366823213L738.0638384363447,314.8154872765427L739.146860835811,314.54500986483094L740.4528584351676,314.5409519254137L741.217344834791,314.3072072493927L741.4721736346653,314.3262979522732L745.0557036328996,314.47511139775594L746.0750188323975,314.431031176799L746.5050424321856,314.3785474817705L748.6551604311262,314.2890438332138L748.7666480310712,314.2657459946355L750.6937908301217,313.95006353185323L751.0760340299335,314.1388543260059L751.2353020298549,314.3393543395467L751.458277229745,314.4194218399314L752.4457388292585,314.21856573036445L753.958784828513,313.78619048117076L755.7266596276419,313.96936512636523L756.0133420275007,313.67573984123555L756.5070728272574,313.6449847883554L758.243094026402,313.41988450594044L759.3579700258528,313.24850485046693L760.9187964250838,313.2922464267849L763.3874504238674,313.350522097059L763.9130348236084,313.5605184966356L764.183790423475,313.5751986123794L764.8049356231691,313.4683735235812L768.9140500211442,313.6759664047353L772.0357028196062,313.71370170786554L772.736482019261,313.76727082989674L773.2939200189863,313.91859669847315L773.7717240187509,314.005917204332L774.1539672185626,314.04325892295304L774.6636248183114,313.90152164322694L775.8103544177465,314.0012427752633L776.2403780175346,313.9004307444105L776.304085217503,313.95784508599036L776.5429872173854,313.7928221611942L776.9570840171814,313.68935715137064L777.3074736170087,313.3618301076241L780.0309564156669,313.2122172589619L780.0946636156355,313.1875545936671L780.3017120155334,313.06873769600503L781.5758560149058,313.38581997828334L781.6395632148742,313.4235229832763L782.2129280145919,313.57325308717776L783.5985596139091,313.4347051962801L783.7100472138541,313.6717989314242L784.4108264135087,313.79363211347857L785.2549468130929,314.01958917328034L785.8760920127868,314.09920183647966L786.8476268123082,314.1863907472544L788.3925264115469,314.2814897912708L788.9977448112488,314.2956576926863L789.7303776108879,313.96842475918316L789.7463044108799,313.80621376809006L790.6859856104169,314.0261268207066L792.0238368097578,314.00656855737554L792.4060800095695,314.07522140845265L793.186493209185,314.15197734727076L793.4094684090751,314.18670936637227L795.7666348079136,314.24034239869127L796.2444388076782,314.20369147220225L797.1841200072151,313.8783211441797L797.996386806815,313.97878624878956L801.2773076051985,314.0997097380664L801.4206488051278,314.44922902615326L802.2647692047119,314.3160368752985L804.4148872036525,314.46499120162133L804.98825200337,314.54211248501275L806.8198340024676,314.5653629886936L808.6195624015808,314.32277909902086L809.7025848010472,314.4898276147919L810.2600228007726,314.33154974965623L812.6490427995955,314.13587284170706L812.7923839995248,314.0206016577522L813.2224075993129,313.79721976938475L813.7002115990775,313.8044077280911L814.2417227988108,313.8335557427014L814.9584287984575,313.680478516848L815.0858431983947,313.61571981700325L815.5317935981751,313.48481546134843L817.3315219972883,313.45581997890423L817.5863507971628,313.56603247529154L818.5738123966762,313.25241023196287L818.8445679965428,313.35292547882443L820.2142727958679,313.1299855881341L820.3576139957972,313.19102349761874L823.3518523943219,313.304380102302L824.180045993914,313.6080660962643L829.101427191489,313.4191220227012L831.3471059903826,313.51589577424204L832.0319583900451,313.49757139741354L832.8760787896292,313.62272313941196L832.9875663895743,313.90163714920214L833.3061023894174,313.9168349490059L833.7201991892134,313.91984496108597L835.153611188507,313.6322967329973L835.981804788099,313.6331268303512L836.9374127876282,313.6258016545938L837.0489003875732,313.91234548539757L837.5107775873457,313.7210838873471L838.3548979869298,313.84187019889123L838.4186051868983,313.52177510864203L838.6256535867964,313.5494296877086L838.8486287866865,313.6472476995418L839.2308719864982,313.7521274690817L839.4219935864039,314.0411098109622L839.9316511861529,313.9887050500887L840.043138786098,314.0141165303662L840.2661139859881,314.01622309413835L842.0658423851013,314.08791078835065L842.241037185015,314.016796162511L842.336597984968,313.8008018525984L842.9895967846462,313.6380992322345L843.0533039846147,313.6781782945113L843.2762791845049,313.9127326074925L843.6425955843243,314.01134085342676L845.3308363834926,313.93601215610755L846.0156887831552,313.8919962568333L847.0031503826687,313.7527815708098L847.2579791825431,313.92846237192407L847.7357831823077,314.01076900210586L850.8255823807852,313.97417672348024L851.5422883804322,314.13130071997364L852.3067747800555,313.8022699556951L852.4341891799926,313.4891858910659L854.1542835791452,313.56359238184234L854.4728195789883,313.59423742056015L857.5626187774658,313.73606723443083L859.7605171763829,313.56606213351006L864.3792891741072,313.84539878791594L865.2393363736834,313.8206472195949L865.6375063734871,313.5595253735019L867.6442831724984,313.53831758340567L868.9343539718627,313.55224843530823L869.9058887713842,313.4672009763803L870.2084979712349,313.5647551137181L871.148179170772,313.6810724968109L872.9956879698617,313.636334187469L874.2539051692418,313.6950814642844L876.0695603683472,313.7560461791931L876.8659003679549,313.74830347667466L878.347092767225,313.72427264538373L878.6019215670993,313.7610516345617L879.079725566864,313.6032640811303L880.2423819662911,313.51467738830127L882.0580371653965,313.4870251778405L883.4595955647061,313.4056029762483L884.5426179641723,313.3079576961509L885.9919567634582,313.1764451542009L886.0238103634426,313.32560027287354L886.1193711633955,313.45181252115134L889.0180487619673,313.45171322633945L891.5663367607116,313.5396220648032L892.1397015604292,313.9012332171879L893.9712835595267,313.86508005754155L894.0349907594953,314.0587151283103L895.5161831587656,314.1237742084791L896.3921571583339,314.3658034490419L897.3477651578631,314.0969645824496L898.8608111571176,314.26836889121006L903.8458995546614,314.06271818698747L904.5466787543161,314.10748821560037L904.6103859542847,314.1772809583572L904.7378003542219,314.2803491394209L907.0949667530606,314.1613898519076L907.8435263526917,314.29743965546993L908.8946951521738,314.2444150997982L908.9265487521579,314.29083536503026L911.6022511508397,314.203525014073L912.4782251504081,313.96518712355487L912.9241755501884,314.10828523402597L913.4497599499293,313.7658738820492L913.8320031497411,313.5365690904251L913.9912711496626,313.60774196297615L915.9502675486974,313.6387203873954L916.2369499485561,313.3245501883139L918.0366783476693,313.3465520207807L918.6896771473477,313.420064106489L920.6008931464058,313.4365593834797L922.2572803455897,313.27600489161875L922.7828647453308,313.228440232152L923.8021799448286,313.19687598381097L923.9614479447501,313.3347858266252L925.2196651441302,313.5447580761028L925.4585671440124,313.595193819587L926.047858743722,313.60844015363074L930.1410463417054,313.39525861622747L930.2684607416425,313.5167555858858L931.2081419411795,313.43526216258624L931.4311171410698,313.2703166101302L934.074965939767,313.55915131595594L934.998720339312,313.58686485797017L935.110207939257,313.64710279021665L935.1739151392255,313.6501229942048L935.2376223391942,313.72274420019517L936.878082738386,313.75909621130563L937.4833011380877,314.0156467660208L938.0088855378286,313.98351636801686L938.1840803377423,314.08936214221245L940.0475159368243,314.0810823973868L940.8279291364397,314.1874974013982L941.066831136322,314.3598931449724L941.4012939361572,314.3561076066025L941.6401959360396,314.41541414834325L942.5958039355686,314.489317144928L943.5195583351136,314.31994064734096L945.5422619341169,314.3181624288897L947.1030883333478,314.242543826286L949.0620847323827,314.1536158965523L949.6354495321001,314.2303286058019L949.9858391319275,314.2993722449468L950.6866183315822,314.43157136473997L951.1325687313625,314.3686826541126L952.5341271306719,314.3568390042886L953.4260279302325,314.34548797865716L954.6046111296519,314.4685729153453L955.3213171292986,314.612268641283L958.6818719276429,314.4714320605079L960.3701127268109,314.45677641063713L960.4178931267874,314.20705203876173L960.8319899265833,313.9797222768947L961.3257207263401,314.02379604470894L964.1766179249354,313.72501369923305L964.2562519248962,313.7266907211458L964.3836663248335,313.7753184598622L966.9638079235622,313.92972041820633L967.8079283231463,314.05166055078365L968.2698055229188,314.07658805200174L969.4643155223301,314.0811860665716L970.9455079216003,314.14362289894024L970.9932883215768,314.1190248371595L972.9841383205959,314.05861310174754L976.3765467189244,313.7274950043567L976.9021311186654,313.5125346633721L977.5710567183359,313.7047861410254L978.0807143180847,313.61128122018204L978.4151771179199,313.4196458320711L979.4185655174255,313.2311211233757L979.6096871173313,313.322032253455L979.8326623172214,313.4803970956046L979.9441499171667,313.6981279922668L981.2182939165388,313.66777750826793L984.0691911151341,313.53342028650314L984.5947755148751,313.64736519132043L985.1681403145926,313.715557333951L987.4456727134705,313.741900709226L988.0349643131801,313.7827550807882L991.2362511116028,313.7532722457885L991.6184943114143,313.94946888017125L992.2237127111163,314.1055099180395L992.3192735110692,314.2796855066649L992.6696631108965,314.0740724256367L994.9312687097822,314.2565434915519L995.1701707096645,314.48000016767395L995.7116819093977,314.7085841161123L996.6195095089504,314.6514372525199L998.3873843080793,314.5976894258269L999.5659675074986,314.4659745237073L1001.3179155066354,314.3794239362252L1004.821811504909,314.3766292231469L1008.0868055033003,314.55000061011145L1008.8990723029001,314.58930248601416L1010.3961915021623,314.4272491093074L1012.2437003012521,314.13823873656247L1013.1196743008205,314.3345272220573L1013.5974783005851,314.4407767617234L1013.6611855005538,314.3812358409568L1014.330111100224,314.35154922738275L1014.839768699973,314.471062457017L1015.2697922997611,314.31996152923927L1015.5405478996278,314.4846864347728L1015.77944989951,314.56461285658696L1015.9387178994315,314.6265008305012L1017.2765690987724,314.7223128430524L1019.538174697658,314.7690381318487L1019.7930034975324,314.96195869169406L1019.8407838975089,314.88676981408094L1019.8885642974853,315.10393637937625L1020.2389538973127,314.7626509127156L1023.5198746956962,314.7070755584505L1024.2684342953273,314.6465765860725L1026.1955770943778,314.52515969016844L1028.4890362932479,314.4243082673591L1029.2535226928712,314.48290043010604L1029.5083514927455,314.4565125608254L1029.98615549251,314.2716763736812L1030.7665686921257,314.47050817727705L1031.0532510919843,314.48179062072023L1031.2762262918745,314.3688944296787L1032.3433218913488,314.29351848236297L1033.0441010910033,314.018143650124L1033.4741246907915,313.73347896130053L1035.3694138898577,313.473721720949L1036.6117042892456,313.37445601132606L1038.0928966885158,313.0998001095696L1038.1884574884687,313.32904353271476L1038.538847088296,313.49172626921086L1039.9722590875897,313.45886079776466L1041.5808658867973,313.50614009961254L1042.807229486193,313.7334750614366L1043.2531798859732,313.9304385957952L1044.7343722852434,313.8137029334244L1045.4032978849139,313.92392997521415L1045.928882284655,313.8106846338135L1046.677441884286,313.8855482049869L1046.9641242841449,313.98231569075796L1049.1142422830853,314.0949161987954L1050.229118282536,314.2278917720828L1051.5191890819005,314.3228130594319L1053.1118690811156,313.9557353473206L1054.4337934804644,313.9929928232506L1055.5645962799072,313.9695395341358L1057.1094958791462,313.8784828256747L1057.3006174790519,314.0138928463081L1057.7465678788321,313.926974163896L1058.1447378786359,313.880107618274L1059.6737106778826,313.79117141622635L1061.999023476737,313.83875746636795L1063.0661190762112,313.5238548245765L1063.782825075858,313.4251624204352L1066.6337222744532,313.35002192184334L1068.4493774735588,313.3773303966521L1069.309424673135,313.3883031393423L1069.723521472931,313.428200332587L1070.2491058726719,313.4257380529394L1070.5835686725072,313.40277051714173L1073.2114906712122,313.5430533984098L1073.7211482709613,313.6647740454117L1075.3138282701766,313.436545166707L1075.8075590699332,313.4292806597548L1075.9349734698703,313.19281359782667L1081.015622667367,313.1242119023484L1081.9553038669042,313.08597134603997L1082.4012542666844,313.24435750556415L1082.449034666661,313.28724566182007L1082.6401562665667,313.2766676376208L1083.40464266619,313.4201324647958L1085.0291762653897,313.38810349610895" fill="none"></path></g></g></g></g><g opacity="0.2"><g><g><g><path style="fill: none;" stroke="rgb(255, 112, 67)" stroke-width="2px" d="M80.30292556043352,88.50719564889147L80.35070596040998,325.798197296761L80.76480276020595,458.0650959705133L81.13111916002546,277.55186178472115L82.29377555945261,267.09192954052685L83.28123715896606,261.8543414711826L83.36087115892683,283.8886712146841L83.69533395876202,236.00342776036337L83.98201635862078,190.6108009718798L84.53945435834612,218.41466795531213L84.57130795833042,167.31030523144528L84.69872235826764,176.28368093627168L87.18330315704347,249.0034062210612L88.17076475655692,344.80799811399504L88.85561715621948,393.9779918288756L89.73159115578788,428.52126577059255L89.93863955568587,318.59219059937226L91.00573515516008,254.69159347681403L91.1331495550973,294.64838774721477L92.40729355446952,238.73422566390485L92.50285435442244,240.2372072227642L92.9488047542027,274.1467522382818L95.09892275314331,332.03077244572637L95.78377515280589,273.6820164620638L96.61196875239781,339.0456583545156L97.21718715209961,386.8720854749944L98.42762395150321,323.53132314600197L99.71769475086757,349.37928404432836L100.59366875043595,163.22645482336878L100.64144915041243,368.74297943883016L100.86442435030257,354.13242631406484L100.92813155027117,286.07792330703734L101.6926179498945,273.3660286151729L101.80410554983956,164.11720762199235L102.50488474949428,372.06197759094687L102.98268874925887,428.7545933227617L104.35239354858399,168.2132014714457L104.86205114833287,175.39813246966676L106.5662187474932,312.6987459652104L107.25107114715576,288.1100857747711L107.29885154713222,391.69087245746255L109.00301914629254,496.521972225016L109.5286035460336,324.17341222257164L110.1656755457197,383.7838865293499L110.64347954548427,409.8990215930447L112.06096474478585,293.7059607299663L113.01657274431501,245.87002924427614L114.65703314350672,215.29088761912882L115.66042154301233,198.94980182277413L116.37712754265922,333.56409415294974L117.68312514201574,285.9492545026615L118.43168474164689,451.2205688874833L118.70244034151351,305.5893331464939L118.7342939414978,272.92521062014697L118.81392794145856,497.3879767639339L119.21209794126239,290.75610104961174L119.22802474125454,240.90140548287405L119.41914634116037,350.3543396396227L119.49878034112113,407.96304699226545L119.96065754089355,337.9090100955501L122.39745793969291,326.1211980733223L123.2734319392613,345.0292006798655L126.88881553747994,261.7361551511563L128.01961833692278,37.213114722359194L128.06739873689924,288.5325963323414L129.97861473595756,379.0892099469718L131.0775639354161,308.198696636267L131.33239273529054,350.9407682007022L131.34831953528268,175.21867529041393L132.27207393482755,474.5766328680176L135.05926393345425,384.775883886322L137.2571623323713,347.88261412217247L137.2890159323556,457.9345262930952L138.08535593196325,252.95493371930195L139.2161587314061,361.86835212345125L140.3788151308332,258.9273291774914L140.4903027307783,354.9671125854805L142.19447032993864,307.6803673133038L142.64042072971887,280.80586115183905L143.9145647290911,344.5292895248264L144.90202632860456,311.19111372667476L146.46285272783553,397.82351335862313L147.036217527553,287.167732577835L148.38999552688597,285.3800260743528L149.71191992623466,306.2683692893803L151.1771855255127,417.5318757913526L151.44794112537932,367.07707645067796L153.91659512416294,290.1748030002385L153.98030232413157,380.1951674110897L154.10771672406878,369.2498666133836L155.8915183231899,418.3330660960525L156.11449352308,395.0762535254341L156.7197119227818,250.94761178666428L157.57975912235804,354.3987330907635L158.8061227217538,240.41954339419752L160.09619352111818,437.52117987769844L160.9562407206944,242.84830548987685L161.4021911204747,407.9782539766036L164.7627459188189,306.1578602818355L164.985721118709,305.10643757344485L165.95725591823032,144.96393702776209L168.01181311721803,372.64512114812806L170.08229711619788,450.2322440910492L170.78307631585258,195.60710735040232L172.13685431518556,325.599620656617L173.0287551147461,412.11826318727844L173.14024271469117,265.5027996771887L173.71360751440866,385.82721431932225L175.03553191375732,322.591516749841L177.28121071265085,356.5793666616533L178.38015991210938,309.97676958899126L178.68276911196025,380.4784528596222L181.18327671072825,410.9149182761308L183.4767359095982,124.8832987599969L184.33678310917446,249.31323007187322L184.79866030894686,286.5175970872223L186.27985270821708,348.89317728769333L186.32763310819354,165.76476626253276L186.51875470809938,396.07967457573784L188.79628710697722,258.95331392742844L190.58008870609828,461.4229789721452L192.93725510493687,371.28038657916824L193.59025390461514,283.10075011112394L196.07483470339093,360.7269978195753L197.20563750283378,196.94414084716362L198.28865990230014,301.80164983145L198.44792790222166,308.53576018232553L198.49570830219812,353.5834615614884L198.73461030208043,350.4262775339797L199.26019470182146,519.3164389520279L202.15887230039323,26.33805395182668L203.67191829964773,386.51019984891786L203.83118629956925,227.90648371357025L204.3886242992946,323.92496996145474L206.90505869805475,321.0215801677063L208.09956869746617,390.9370194280386L209.91522389657155,367.2114478741806L210.56822269624985,238.22637882529125L212.82982829513548,356.52134389616884L212.90946229509626,338.20982786825897L213.05280349502561,263.7149455330819L214.53399589429583,290.40434726140126L214.97994629407611,334.79530623199867L215.13921429399764,447.9455307313539L216.62040669326782,321.0991284057997L217.161917893001,259.3959774302624L221.0321302910941,381.10387700068543L221.49400749086655,372.51606478711255L221.82847029070174,394.78198730544375L221.93995789064678,150.87760842749998L222.86371229019164,226.9531312900983L227.11616788809638,252.5154444898978L228.00806868765693,454.8299207830373L228.51772628740585,310.0305107763611L229.90335788672311,376.4958839200504L230.42894228646415,352.22083087142965L231.79864708578927,185.93151592462064L232.00569548568726,371.064978907815L233.43910748498098,298.5426306830943L233.8054238848005,320.32091467330974L234.09210628465922,274.1784211522676L236.40149228352138,254.46791793048084L237.42080748301913,337.3434726828575L240.23985108163015,381.7355389581397L243.29779668012347,253.20009097652064L243.40928428006853,244.3155949277289L245.25679307915823,421.37355866485944L246.53093707853046,289.14718734257144L247.215789478193,408.4769840066455L248.569567477526,480.15719010840616L249.0632982772827,230.7402609527998L249.31812707715716,199.49592449332624L250.22595467670985,409.54726780483423L250.95858747634887,355.7923683119971L250.97451427634104,456.7377698448222L251.32490387616838,283.60283896537646L252.2964386756897,430.5632832500212L252.43977987561905,147.42529079133124L253.26797347521102,357.8202122914601L253.31575387518745,166.05093070324585L253.92097227488927,435.0849988406308L254.28728867470878,333.3706480245121L254.41470307464598,234.146256342987L255.14733587428503,181.51879602515322L256.4533334736415,459.09828506176063L256.7559426734924,212.2553594663255L257.9823062728882,380.05716033720523L258.96976787240163,383.8049437734395L261.5021290711539,372.62733045285864L262.34624947073803,322.4194046916641L262.6647854705811,178.09600651391298L263.15851627033777,223.5755936303109L263.3018574702671,110.90789560244303L263.84336867000036,267.3248695360564L265.14936626935685,254.54376830139086L265.7386578690665,429.9175585230697L266.9172410684858,333.57073798105864L268.73289626759123,402.4083268611893L270.26186906683785,219.8329407057829L270.3415030667986,255.36848883064314L270.9148678665161,218.74936925137638L271.40859866627284,270.9634358202115L272.95349826551166,263.96718954028336L273.3675950653076,362.55017498312776L273.6861310651507,349.471153423012L275.37437186431885,423.1007694223944L277.20595386341637,332.3345430309281L278.0500742630005,367.2725341826264L281.442482661329,234.4747936429724L284.7234034597124,277.247980469051L285.7108650592259,348.2984070313215L286.95315545861376,432.9251641427375L287.2239110584804,211.07231514106618L287.6539346582685,418.85194907135815L287.98839745810375,420.6360752896927L288.17951905800953,222.60703422250077L288.4184210578918,309.2500824345015L290.4889050568717,303.5504530303389L293.08497345559255,335.770361827293L293.1486806555612,439.59964613633565L294.70950705479214,300.163835472136L295.37843265446253,265.29296543941575L296.1906994540623,306.4554668709584L296.55701585388186,286.4955986341506L297.49669705341887,302.18787770551444L299.58310785239087,323.6623172902159L300.7616910518101,345.4178277140804L303.88334385027207,278.19299119723064L306.12902264916556,426.35650356685187L307.1801914486477,264.81616004213316L307.2916790485927,389.8597042451013L307.7057758483887,323.5570864350021L307.99245824824743,352.9609533227619L308.93213944778444,313.61205086924804L309.7284794473921,401.1231521338336L312.67493744594026,329.66549581864325L312.77049824589324,364.82044486825356L313.2483022456578,217.8767762495838L313.3916434455872,312.5535045007184L313.5509114455087,277.737076948335L315.01617704478673,479.0719392418943L315.1595182447161,309.96643474526627L315.4939810445513,368.4681279609803L316.51329624404906,328.99207001949327L316.81590544389996,410.80666078811174L319.9694118423462,216.20120280051754L321.40282384163993,289.977259844467L322.77252864096505,413.83211246828324L326.0693762393406,393.4738913711123L326.10122983932496,292.29470090916607L326.61088743907385,382.5755956572767L327.10461823883054,282.88744631867183L330.3218318372454,177.40663552730157L330.704075037057,291.9491111170344L330.8474162369864,318.4947477871083L331.72339023655485,341.00160134977773L334.35131223526,316.86867085745337L335.9758458344596,434.7950880190674L336.31030863429476,328.6490639382929L338.4285730332511,297.7294999428764L339.5753026326861,409.9770312080901L340.19644783238004,406.4322167205829L340.92908063201907,284.7652874234982L342.50583383124217,403.8098239456851L345.56377942973546,123.52781018515529L347.34758102885655,459.4409220413994L348.1120674284799,248.31805844147132L348.7809930281503,357.91767355880216L351.44076862683977,227.66320887431576L351.93449942659646,379.95652479643337L354.19610502548215,364.57381120478846L354.7216894252232,281.91176325072274L355.0402254250663,195.64530936202854L355.43839542487007,329.777370501966L355.78878502469746,273.23049452175127L356.83995382417953,424.8886235665012L357.4610990238735,252.21215373672618L357.62036702379504,179.63899868205039L359.03785222309654,257.4065938335188L359.2608274229867,126.2102188739702L359.7227046227591,377.6808844835862L359.8501190226964,347.77265876697004L360.3119962224688,370.8795238281861L361.8887494216919,185.85289729199854L365.5678402198792,309.0599582201183L366.0137906196594,353.8101637406267L366.60308221936907,353.00330772695617L367.1605202190944,284.5295053459443L367.35164181900024,309.3600008795478L368.370957018498,238.80856271841228L370.52107501743865,359.06807085093743L371.3811222170148,422.00845026097784L373.49938661597116,368.83900121008196L373.51531341596336,343.8937704560533L375.7450654148647,53.042219742610314L377.67220821391516,323.24323937716855L377.7836958138602,204.69110279324204L379.7745458128793,369.0853211372197L381.57427421199253,201.4558168752976L382.3228338116237,282.0307985043406L383.0076862112863,298.8865226080425L384.09070861075264,336.4439721772239L384.9348290103367,371.61894498655124L386.5593626095363,293.08564864553136L390.6047698075431,263.97752438400835L390.700330607496,378.50167408120745L392.43635180664063,343.3764377073064L392.65932700653076,344.3641534861639L393.8856906059265,271.5202624360502L393.98125140587945,387.7827697579447L395.35095620520457,244.0007143855229L395.71727260502405,487.17015668907504L396.8321486044747,173.2108735257462L397.18253820430215,235.1174363718845L397.7081226040432,228.6179269735657L398.0903658038548,161.48459073383808L398.7274378035409,337.7315091545738L399.01412020339967,313.47234592818023L399.1096810033526,131.11162924100384L399.157461403329,280.14937711436676L400.36789820273265,217.04371402503924L400.38382500272473,415.63984273148253L401.13238460235596,326.12204700691404L401.6261154021127,315.23845999030846L402.05613900190076,243.2437978131376L402.1039194018773,410.875904241069L402.183553401838,275.62563146516834L403.3143562012808,344.72052104389445L404.26996420081,292.725405521404L405.17779180036274,308.43743152631373L405.89449780000956,345.25881876134054L406.54749659968786,151.50113169552088L406.75454499958585,289.82279084093494L406.770471799578,468.8610767314717L407.1208613994054,389.6212277261477L407.3756901992798,221.66047326776237L409.47802779824394,246.64787387520448L410.5769769977025,188.67397743750882L410.62475739767893,376.7095014488298L410.6406841976711,295.5782284012124L411.40517059729444,436.45504847207775L411.78741379710607,325.8596527067684L413.8897513960702,205.79811219681054L415.3709437953404,380.8125082279537L416.3902589948382,152.0703970339857L417.42550099432805,381.7681490811076L417.79181739414764,295.0992083945602L419.1296685934884,352.0936753834564L419.1774489934649,135.47437278902976L419.2570829934256,201.87814288208708L420.32417859289984,300.75244173242896L420.61086099275866,391.27395378855056L422.42651619186404,383.1098886227794L424.94295059062415,162.50264666105957L425.62780299028674,372.68745709724425L426.75860578972953,77.74795894839093L427.1727025895255,240.3901629098937L427.5071653893607,265.24631100202873L427.6027261893136,302.6003856107652L430.1191605880737,229.03981005848124L433.92566578619824,189.36449263896122L434.6742253858294,421.2320635812178L435.27944378553116,321.97644590758085L435.7253941853114,302.41531808777603L437.54104938441685,323.59587900912686L438.0984873841422,343.1558995242469L438.68777898385184,265.5751804934196L440.13711778313774,274.03738744557796L442.20760178211754,458.61850839690715L443.402111781529,329.2786773820803L444.83552378082277,260.7008621810079L444.8833041807992,340.70543425674515L447.28825097961425,207.0601073460974L448.14829817919053,458.05429974983633L448.30756617911203,308.8209280488223L448.8490773788452,272.144007165008L449.0083453787667,298.18017294959725L449.4224421785627,331.23882813514473L450.1391481782096,466.2566592026241L450.5054645780291,398.75453513761795L451.69997457744057,370.1786553279307L452.75114337692264,329.0603907185465L454.5508717760358,368.42512762905324L455.33128497565133,272.0678615128487L456.62135577501573,346.4771491958894L456.79655057492937,278.8012705707572L457.1150865747724,268.70999696629497L458.27774297419955,443.74456439777987L460.8897381729126,232.35600303872974L463.13541697180614,327.8718836901754L463.75656217150004,371.8346110289976L464.2184393712725,330.3038200592846L465.60407097058976,305.28150244411455L466.36855737021307,354.8633765915912L466.4004109701974,284.9264002551392L467.0056293698992,463.4445666801389L467.3719457697187,317.9625033352725L468.50274856916155,334.5896428418718L470.74842736805505,401.0332020832702L471.76774256755283,331.51871784931046L473.3285689667838,346.64106719939855L473.45598336672106,345.28775632377045L476.2272465653556,348.3767303826943L476.7528309650966,351.402920265989L477.9314141645159,272.6002905154653L478.55255936420986,275.0677344548009L479.922264163535,456.0804737839144L481.48309056276594,356.40957994331455L481.6901389626639,326.2194529090218L481.8334801625933,259.43620950047745L483.09169736197333,355.0616394954078L484.03137856151034,176.23459042857812L485.8470337606158,417.7872202516716L486.08593576049805,341.06674777540115L487.3441529598781,346.9883548587136L488.72978455919537,349.77182355509626L490.7365613582066,309.27946291880534L491.2939993579319,400.6050627268855L492.47258255735125,357.69831650073974L494.4475057563782,232.98845856454147L494.78196855621337,334.3726111236475L495.1801385560172,413.1174395696238L496.199453755515,258.6276556196235L496.4224289554051,373.1608852152381L498.3814253544399,252.67153754030093L498.55662015435354,407.1168447521277L501.21639575304306,461.265501790886L504.40175575147356,215.48795094287024L506.424459350477,95.42910487431215L506.4403861504691,217.90191206592917L506.9022633502415,370.7397081566498L506.9341169502258,400.0966806910075L508.5108701494489,404.0464734119087L511.9192053477696,116.52997676851226L512.0147661477225,370.4641738409109L512.1103269476755,158.65247445163578L512.174034147644,238.88149718698563L512.1899609476362,292.4448514244273L514.0215429467337,337.8604363300428L517.700633744921,198.82098537777364L519.261460144152,385.1885025220413L519.4207281440735,295.0790923594527L519.5322157440186,132.8629423305117L519.8188981438773,306.07248709063606L521.4275049430847,200.10490515981985L522.7972097424098,402.8875314186223L524.2465485416957,73.85094775079932L524.2784021416801,371.22025993478263L524.7880597414289,341.07663969725223L525.0747421412877,267.72615675383435L529.5820265390669,247.91411369244977L529.9961233388628,211.53317535088732L530.6969025385175,373.121096066897L532.5603381375994,382.83972473476194L532.7673865374974,277.6613373078935L534.2326521367754,343.9524945145048L534.6945293365479,360.39465877350534L535.3156745362418,197.7271528999545L541.0333957334245,279.7752188613668L541.4474925332205,58.283572647883034L541.7978821330479,242.5818879827097L542.1004913328989,270.70004494584947L542.4986613327026,331.41913424798923L542.7534901325771,388.0828493275303L542.9446117324829,245.88903797469882L544.7124865316118,386.4349031303503L545.6999481311253,278.34967481013234L549.0127225294931,318.6689268140301L549.1242101294381,462.61008341458216L549.2675513293675,279.525669295565L550.0638913289752,390.70084979384507L550.1116717289516,353.60883729384875L550.4461345287867,186.9544439924553L550.9398653285435,357.93022301189677L551.2424745283944,399.09049137899166L553.4085193273272,318.61016584542244L554.6985901266916,350.9890466849603L554.7145169266837,237.25139705030918L557.4379997253418,335.7861593741298L557.5176337253026,345.45820742492003L557.9317305250986,359.14918091910033L558.6643633247376,233.79590514071063L558.9032653246198,391.75934079714045L560.2092629239764,450.183928696635L561.3082121234348,277.1695463872097L561.9612109231132,171.46111066279707L562.6460633227757,284.6569192050107L564.7484009217399,223.5693189037636L564.9235957216534,229.07970993729083L566.5481293208531,347.220815022213L567.1852013205392,382.6774492332019L568.6823205198015,370.80238160181045L568.9052957196916,466.3077982239846L569.1919781195505,254.56934703961014L574.1929933170863,274.1545033710755L575.0371137166704,322.35495955900774L579.8310805143084,306.99195599075256L580.420372114018,232.98683451767042L584.4498525120326,382.0386451605305L584.8639493118286,362.88153591005954L586.2336541111538,350.1294829682924L587.2688961106436,134.84546063820943L587.3803837105887,369.1975280119479L587.5077981105259,303.8561060335047L588.2722845101492,376.43038684794345L588.4156257100786,307.63518928216325L589.3553069096157,316.09123223824275L589.5623553095136,255.6617769314952L592.0628629082817,326.4134526898019L592.5884473080226,195.40340019855202L593.257372907693,359.7577555738762L596.2197577062335,280.5552781016648L597.7168769054957,284.07001081190106L597.9239253053938,308.5934876665607L599.0228745048523,314.64605198393093L599.7555073044914,243.15779714928343L600.5359205041068,254.1016215407431L601.4278213036673,372.57892278305405L603.5301589026315,373.0438246549748L603.6575733025687,132.06261941448153L605.250253301784,252.71959456362202L605.4413749016899,234.65030143551604L605.7599109015329,361.9586712755762L607.6392733006069,281.475595935373L608.069296900395,339.595066028966L608.1011505003793,301.03794179033116L609.534562499673,385.65148506584165L610.6494384991238,295.23725237860083L611.0794620989118,115.42577253681196L611.1909496988569,353.42103841930367L611.6369000986372,370.71920456490255L613.8029448975699,370.5362409208145L615.2682104968479,251.3456509107001L616.8131100960868,410.1689455650471L616.9564512960161,403.0895591583673L617.1475728959219,347.9617125868246L617.4501820957729,422.34169360587373L617.7209376956395,307.6401721532449L618.5809848952158,394.2978736972414L619.1702764949252,378.008351389043L619.7595680946349,243.46193683604673L621.4159552938189,303.3054065035887L621.7185644936698,296.58580184408424L621.8300520936149,261.6492686435543L622.562684893254,349.18303274402246L623.3908784928459,328.36581539991647L623.4386588928223,437.5286172741648L626.9107012911116,284.07510441345124L627.2451640909468,335.5774324410416L628.1211380905152,155.52924776779486L629.5067696898324,404.75823040823155L629.5226964898245,355.3548353208695L630.1279148895264,338.59804889075605L630.6853528892517,386.72856033276395L630.8286940891811,281.81520628220665L633.6158840878078,250.63527804523335L635.1289300870623,202.66480904033781L638.330216885485,305.41120473286287L638.9035816852024,318.2564558189355L639.8910432847159,293.8570339991316L641.1174068841117,268.12663194817674L642.3756240834917,366.01849317199213L642.7100868833269,328.66249923513533L642.8375012832641,254.56661568805427L643.0445496831621,470.92894977529085L643.0764032831464,246.33136928612737L644.7327904823304,243.3687017815851L644.7646440823146,449.38271993685703L646.1980560816085,365.9181344573915L649.3515624800546,356.51010475361795L649.4630500799997,433.63251037539914L650.5142188794817,319.2250890470579L650.5938528794425,259.8793159251854L652.2502400786265,272.14839947359116L652.520995678493,113.21090479608324L653.5880912779672,373.5728763783026L653.9066272778102,460.8914358132765L655.6107948769705,384.37308335214146L656.6778904764448,231.27501529525443L656.916792476327,413.0953119310055L657.1716212762016,206.58673459333778L657.3786696760995,243.3260705512196L657.9361076758249,316.4642831865579L658.3502044756209,402.825411625804L662.0611488737924,424.63599200266003L663.0167568733216,366.87246500000174L663.4945608730861,222.68938078089505L663.7971700729371,249.59500220400318L665.2146552722386,256.887673948057L665.8358004719325,434.08803706765514L665.8995076719012,310.4488504862852L666.0428488718305,244.78099508675786L666.5365796715872,227.20744226604475L667.4444072711399,273.5018210796878L669.7697200699943,421.5951118772134L672.142813268825,385.3920066680327L673.8788344679697,260.7789640714437L676.1722936668397,420.32047499944156L676.7138048665728,240.5210832337953L681.0936748644148,282.5978123232797L681.7785272640773,189.79194915745705L682.8774764635358,199.91311998840942L687.9103452610561,274.28675246059896L688.7863192606245,347.38299824838265L689.0252212605068,271.1217434799843L690.6656816596985,192.85143200160863L691.8442648591177,350.17635886661634L692.0990936589922,204.75030668372364L692.2742884589059,467.0691624701872L694.0899436580113,379.16177531398347L695.0614784575326,327.04018714140875L695.0774052575247,288.47187912545724L696.0011596570697,441.329256054021L696.3196956569127,238.10889379823206L697.0045480565751,382.2679310506001L698.230911655971,260.9628135592796L700.4765904548644,231.4407418964155L700.8588336546762,345.8460224356994L703.024878453609,344.8803420200698L704.5538512528556,368.5750382282995L705.4935324523926,321.23997756170854L705.6687272523063,381.62589733926467L710.1919384500776,336.4356304819316L711.9598132492065,225.5341941568166L712.4057636489869,441.9359667459108L713.2180304485865,345.47562901862784L714.7629300478254,306.99158688919096L715.2566608475821,229.97773403667807L715.336294847543,370.12856824602073L715.6070504474095,188.18421657541396L717.0245356467111,412.65785276019017L720.2736028451102,367.78370293529446L721.4203324445451,310.62391535695497L724.4782780430385,425.6531805412117L724.6693996429443,446.76654652327227L725.1790572426933,356.8008829638511L725.6250076424735,320.6086293405816L727.0106392417908,329.8820477048375L727.1699072417123,204.94375281216128L727.2654680416653,404.15775753273294L727.3291752416337,76.79272410695478L727.8229060413905,272.0289951184117L727.8547596413748,263.6204924434669L728.077734841265,283.7001710471719L728.1732956412179,485.7858043721158L729.335952040645,249.88626024626643L733.2698716387067,287.1825704606116L734.6714300380162,403.0309827405404L735.0855268378122,396.36908711019305L736.5189388371059,259.7469191950373L736.9489624368939,239.03655675301627L738.0638384363447,413.39544686582536L739.146860835811,183.66969846525564L740.4528584351676,312.57535531316546L741.217344834791,200.964985618674L741.4721736346653,323.59314765757097L745.0557036328996,386.7873213013716L746.0750188323975,292.98872257545366L746.5050424321856,288.8215659449227L748.6551604311262,270.65933304360436L748.7666480310712,302.8969956256717L750.6937908301217,159.74376012867987L751.0760340299335,406.45679888458585L751.2353020298549,412.48531623521745L751.458277229745,353.65373849881814L752.4457388292585,215.69372506346554L753.958784828513,101.47568974638432L755.7266596276419,404.00720100575387L756.0133420275007,169.19789061749802L756.5070728272574,298.4964191675812L758.243094026402,202.43153685340286L759.3579700258528,228.66103803596124L760.9187964250838,334.9037851809546L763.3874504238674,342.17239150319176L763.9130348236084,417.5260624417573L764.183790423475,320.8504646837458L764.8049356231691,260.47353252921476L768.9140500211442,416.76508575219435L772.0357028196062,332.471738081377L772.736482019261,340.42310847227276L773.2939200189863,389.293779275769L773.7717240187509,357.5438659522857L774.1539672185626,332.6805019246213L774.6636248183114,243.08962409085484L775.8103544177465,363.87168775922356L776.2403780175346,263.4341330650121L776.304085217503,342.727963173721L776.5429872173854,231.01826824900135L776.9570840171814,261.740436729271L777.3074736170087,148.750476127965L780.0309564156669,237.94423759159966L780.0946636156355,300.76790708786024L780.3017120155334,253.1759517343916L781.5758560149058,473.37642532014365L781.6395632148742,332.4660170071721L782.2129280145919,389.2707473383248L783.5985596139091,243.3221211645104L783.7100472138541,433.77068354498635L784.4108264135087,375.56774113323615L785.2549468130929,428.69967101039475L785.8760920127868,354.54417756111434L786.8476268123082,358.5230739401482L788.3925264115469,362.6872223929521L788.9977448112488,321.51410929151325L789.7303776108879,147.08523752262371L789.7463044108799,231.00206469044684L790.6859856104169,426.3929892562166L792.0238368097578,304.00352519721014L792.4060800095695,349.22108711502403L793.186493209185,353.4834904035274L793.4094684090751,332.0010966801733L795.7666348079136,341.7753120432161L796.2444388076782,295.36946455796806L797.1841200072151,146.51874044587092L797.996386806815,365.703354258693L801.2773076051985,376.41584424641616L801.4206488051278,494.7378829168375L802.2647692047119,245.54865251458585L804.4148872036525,391.4423194658771L804.98825200337,354.43440675669274L806.8198340024676,326.6032816229358L808.6195624015808,188.60853573063613L809.7025848010472,401.13968788379356L810.2600228007726,232.15510105874762L812.6490427995955,212.44828885257692L812.7923839995248,254.0622753142759L813.2224075993129,197.49812538097797L813.7002115990775,317.5501061604902L814.2417227988108,329.03673130844754L814.9584287984575,233.76456841813027L815.0858431983947,279.7767321777694L815.5317935981751,245.01972997680457L817.3315219972883,298.2769144688941L817.5863507971628,371.3138087255716L818.5738123966762,148.77553812399805L818.8445679965428,366.1151055057425L820.2142727958679,195.99931466976477L820.3576139957972,345.28871598783064L823.3518523943219,372.9682695653141L824.180045993914,473.5930879368063L829.101427191489,213.79215072822794L831.3471059903826,364.5886859977212L832.0319583900451,303.81816239297166L832.8760787896292,379.79002308199296L832.9875663895743,461.49369883134887L833.3061023894174,321.9661479740121L833.7201991892134,315.5154707122937L835.153611188507,161.06639866453855L835.981804788099,314.0739445634417L836.9374127876282,309.732387445052L837.0489003875732,466.3476058274038L837.5107775873457,211.88463385784848L838.3548979869298,378.2103975838661L838.4186051868983,142.78992882990318L838.6256535867964,328.3126647750452L838.8486287866865,365.91232110779623L839.2308719864982,369.8391003463313L839.4219935864039,468.71550307557436L839.9316511861529,285.9153709793061L840.043138786098,327.6388698743336L840.2661139859881,315.14666443193704L842.0658423851013,352.59068909123687L842.241037185015,275.78895890617895L842.336597984968,197.59287375184223L842.9895967846462,226.02683401109203L843.0533039846147,335.2782018050477L843.2762791845049,440.4302538354956L843.6425955843243,367.24549749323876L845.3308363834926,273.2348499201782L846.0156887831552,290.0893928988829L847.0031503826687,238.40546690298245L847.2579791825431,409.09279305202887L847.7357831823077,358.6329923851944L850.8255823807852,294.1190961078718L851.5422883804322,399.4589654679429L852.3067747800555,134.96899893087894L852.4341891799926,143.18058592270688L854.1542835791452,354.07241040014776L854.4728195789883,330.29211953978165L857.5626187774658,391.08076603120605L859.7605171763829,220.77928019958438L864.3792891741072,466.43065367876517L865.2393363736834,300.2891085421451L865.6375063734871,170.6876214302957L867.6442831724984,301.92496666318254L868.9343539718627,321.1870483977743L869.9058887713842,266.81860983415766L870.2084979712349,367.1172162455026L871.148179170772,377.58598847209737L872.9956879698617,289.0369367061198L874.2539051692418,346.0237079274565L876.0695603683472,347.332283693818L876.8659003679549,309.48054944956823L878.347092767225,300.46779060811843L878.6019215670993,334.0664413782954L879.079725566864,226.41948425232843L880.2423819662911,264.52752262095737L882.0580371653965,298.18342104333937L883.4595955647061,268.30771317430066L884.5426179641723,259.1810126807831L885.9919567634582,240.21764483999908L886.0238103634426,396.1381771732524L886.1193711633955,383.58226480132265L889.0180487619673,313.3964955572702L891.5663367607116,362.46450651067903L892.1397015604292,515.312711265437L893.9712835595267,293.7123830971383L894.0349907594953,422.08136627447306L895.5161831587656,350.446799580805L896.3921571583339,449.59940100859774L897.3477651578631,163.76515855253263L898.8608111571176,410.191202389212L903.8458995546614,198.8842493854329L904.5466787543161,339.2014192135133L904.6103859542847,353.32723125742154L904.7378003542219,372.1411683309894L907.0949667530606,247.32750058058946L907.8435263526917,390.79262689713835L908.8946951521738,284.4077387407705L908.9265487521579,340.4315608980335L911.6022511508397,264.9982378424734L912.4782251504081,179.54188806119188L912.9241755501884,394.8783043579448L913.4497599499293,120.34707747801616L913.8320031497411,183.90902391780094L913.9912711496626,353.8731140119586L915.9502675486974,331.17788946732355L916.2369499485561,135.31366596910655L918.0366783476693,325.82244726935846L918.6896771473477,355.1360319151495L920.6008931464058,322.8042668899506L922.2572803455897,222.0275078606233L922.7828647453308,286.1753661193013L923.8021799448286,295.23068237080423L923.9614479447501,391.89157143158576L925.2196651441302,433.2401923255682L925.4585671440124,342.3679046003744L926.047858743722,321.17091865953205L930.1410463417054,191.59630214136766L930.2684607416425,382.9846893730827L931.2081419411795,266.8052114474714L931.4311171410698,218.8190556262076L934.074965939767,479.07507660516796L934.998720339312,329.4798377331555L935.110207939257,348.21757378932983L935.1739151392255,315.3846980290167L935.2376223391942,355.4616717678763L936.878082738386,334.6677816424638L937.4833011380877,461.68526254182234L938.0088855378286,295.47576580771056L938.1840803377423,375.10341136873586L940.0475159368243,309.3047832859315L940.8279291364397,375.6195629924856L941.066831136322,413.95452500118984L941.4012939361572,312.16757190790327L941.6401959360396,348.7273030459076L942.5958039355686,357.277079343557L943.5195583351136,216.1845563200891L945.5422619341169,313.28713076456637L947.1030883333478,270.3663033138454L949.0620847323827,262.51765388754455L949.6354495321001,358.8056211855575L949.9858391319275,354.4472699461147L950.6866183315822,391.35868105201723L951.1325687313625,277.74730106159154L952.5341271306719,307.45510463025573L953.4260279302325,307.7260989967868L954.6046111296519,386.29715442755895L955.3213171292986,398.5283681557439L958.6818719276429,232.16658011731354L960.3701127268109,305.8859431614004L960.4178931267874,168.06124235853255L960.8319899265833,180.84581314787718L961.3257207263401,339.8534740322463L964.1766179249354,138.4985695238918L964.2562519248962,314.71090312830506L964.3836663248335,342.33405798717513L966.9638079235622,404.6725065705486L967.8079283231463,385.76662629798466L968.2698055229188,328.7470973130554L969.4643155223301,316.78912947092726L970.9455079216003,350.9406205600776L970.9932883215768,299.6121393680036L972.9841383205959,278.40563060687185L976.3765467189244,118.17731394811574L976.9021311186654,186.47446432174297L977.5710567183359,427.4007287947912L978.0807143180847,258.2751267181337L978.4151771179199,199.93190725789518L979.4185655174255,201.50885676970034L979.6096871173313,367.23412916514127L979.8326623172214,407.45817142122274L979.9441499171667,442.99355345038026L981.2182939165388,295.63241251045616L984.0691911151341,233.63907388718428L984.5947755148751,381.4497805291444L985.1681403145926,354.3205389249373L987.4456727134705,329.4386829090364L988.0349643131801,338.1424299231097L991.2362511116028,296.16207325136065L991.6184943114143,431.0908954772588L992.3192735110692,418.41314267984296L992.6696631108965,191.06276583406628L994.9312687097822,423.49589264409354L995.7116819093977,451.7371080678727L996.6195095089504,280.3709487817988L998.3873843080793,282.334716730167L999.5659675074986,235.34952743382232L1001.3179155066354,262.357094708246L1004.821811504909,312.6957193324052L1008.0868055033003,418.8949863134414L1008.8990723029001,338.2590660165772L1010.3961915021623,216.7654483577445L1012.2437003012521,139.8509945557721L1013.1196743008205,432.7837059692521L1013.5974783005851,378.5984894208167L1013.6611855005538,278.40452330218704L1014.330111100224,296.40213690702916L1014.839768699973,386.77945943810937L1015.2697922997611,222.84071242115348L1015.5405478996278,414.2769721254088L1015.77944989951,363.0164056206703L1015.9387178994315,352.1676064262461L1017.2765690987724,372.8792607237328L1019.538174697658,343.1491449656695L1019.7930034975324,432.2140161639914L1019.8407838975089,269.1595257581748L1019.8885642974853,447.2619177291036L1020.2389538973127,106.93813448705896L1023.5198746956962,280.8429927689366L1024.2684342953273,277.75878012015744L1026.1955770943778,240.44685690975635L1028.4890362932479,252.85409517267124L1029.2535226928712,350.2764222999677L1029.5083514927455,298.32611570705626L1029.98615549251,201.21320641885399L1030.7665686921257,436.16666942199504L1031.0532510919843,321.3916413933724L1031.2762262918745,245.18279904672207L1032.3433218913488,268.0718203662783L1033.0441010910033,145.04779690255893L1033.4741246907915,138.9531550071657L1035.3694138898577,153.88622907646226L1036.6117042892456,252.35023463092296L1038.0928966885158,144.14781656489524L1038.1884574884687,454.43396708282455L1038.538847088296,413.6893070740979L1039.9722590875897,293.2041671569631L1041.5808658867973,342.66204163481814L1042.807229486193,454.0118809920501L1043.2531798859732,435.5432015192084L1044.7343722852434,241.69213175830245L1045.4032978849139,382.0663646878071L1045.928882284655,243.75921123376415L1046.677441884286,360.2232480082955L1046.9641242841449,373.91447987356895L1049.1142422830853,383.87588509358017L1050.229118282536,396.6861638066907L1051.5191890819005,373.2195539084554L1053.1118690811156,86.05248571343122L1054.4337934804644,337.13869513647853L1055.5645962799072,299.3906415208839L1057.1094958791462,257.24197453704255L1057.3006174790519,398.28883969733977L1057.7465678788321,259.79877796444293L1058.1447378786359,284.6765554080881L1059.6737106778826,258.33968258125856L1061.999023476737,343.5264036717869L1063.0661190762112,116.94650788078457L1063.782825075858,251.77964052683637L1066.6337222744532,266.38742538988964L1068.4493774735588,330.4552624300115L1069.309424673135,320.2544394820645L1069.723521472931,338.40855214902757L1070.2491058726719,311.8831422445297L1070.5835686725072,299.0052625804111L1073.2114906712122,401.53346388479287L1073.7211482709613,390.05754268212206L1075.3138282701766,170.1136685019985L1075.8075590699332,308.8646296737164L1075.9349734698703,164.52115237101393L1081.015622667367,269.9675259866864L1081.9553038669042,289.0150489835165L1082.4012542666844,413.000729655844L1082.449034666661,340.31533081628385L1082.6401562665667,306.60650322996753L1083.40464266619,403.93733008014186L1085.0291762653897,293.168069024238" fill="none"></path></g></g></g></g></g></g><g transform="translate(72, 377)" clip-path="url(#clip_1)"><clipPath id="clip_1"><rect width="1114" height="22"></rect></clipPath><g><g><line x1="0" y1="0" x2="0" y2="5" style="visibility: inherit;" fill="rgb(0, 0, 0)" stroke="rgb(204, 204, 204)" stroke-width="1px"></line><line x1="79.6339999607631" y1="0" x2="79.6339999607631" y2="5" style="visibility: inherit;" fill="rgb(0, 0, 0)" stroke="rgb(204, 204, 204)" stroke-width="1px"></line><line x1="159.2679999215262" y1="0" x2="159.2679999215262" y2="5" style="visibility: inherit;" fill="rgb(0, 0, 0)" stroke="rgb(204, 204, 204)" stroke-width="1px"></line><line x1="238.90199988228932" y1="0" x2="238.90199988228932" y2="5" style="visibility: inherit;" fill="rgb(0, 0, 0)" stroke="rgb(204, 204, 204)" stroke-width="1px"></line><line x1="318.5359998430524" y1="0" x2="318.5359998430524" y2="5" style="visibility: inherit;" fill="rgb(0, 0, 0)" stroke="rgb(204, 204, 204)" stroke-width="1px"></line><line x1="398.1699998038156" y1="0" x2="398.1699998038156" y2="5" style="visibility: inherit;" fill="rgb(0, 0, 0)" stroke="rgb(204, 204, 204)" stroke-width="1px"></line><line x1="477.80399976457863" y1="0" x2="477.80399976457863" y2="5" style="visibility: inherit;" fill="rgb(0, 0, 0)" stroke="rgb(204, 204, 204)" stroke-width="1px"></line><line x1="557.4379997253418" y1="0" x2="557.4379997253418" y2="5" style="visibility: inherit;" fill="rgb(0, 0, 0)" stroke="rgb(204, 204, 204)" stroke-width="1px"></line><line x1="637.0719996861048" y1="0" x2="637.0719996861048" y2="5" style="visibility: inherit;" fill="rgb(0, 0, 0)" stroke="rgb(204, 204, 204)" stroke-width="1px"></line><line x1="716.7059996468681" y1="0" x2="716.7059996468681" y2="5" style="visibility: inherit;" fill="rgb(0, 0, 0)" stroke="rgb(204, 204, 204)" stroke-width="1px"></line><line x1="796.3399996076312" y1="0" x2="796.3399996076312" y2="5" style="visibility: inherit;" fill="rgb(0, 0, 0)" stroke="rgb(204, 204, 204)" stroke-width="1px"></line><line x1="875.9739995683942" y1="0" x2="875.9739995683942" y2="5" style="visibility: inherit;" fill="rgb(0, 0, 0)" stroke="rgb(204, 204, 204)" stroke-width="1px"></line><line x1="955.6079995291573" y1="0" x2="955.6079995291573" y2="5" style="visibility: inherit;" fill="rgb(0, 0, 0)" stroke="rgb(204, 204, 204)" stroke-width="1px"></line><line x1="1035.2419994899205" y1="0" x2="1035.2419994899205" y2="5" style="visibility: inherit;" fill="rgb(0, 0, 0)" stroke="rgb(204, 204, 204)" stroke-width="1px"></line><line x1="1114.8759994506836" y1="0" x2="1114.8759994506836" y2="5" style="visibility: inherit;" fill="rgb(0, 0, 0)" stroke="rgb(204, 204, 204)" stroke-width="1px"></line></g><g transform="translate(0, 8)"><text style="text-anchor: middle; visibility: hidden; font-family: &quot;Helvetica Neue&quot;, sans-serif; font-size: 12px; font-weight: 200;" x="0" y="0" dx="0em" dy="0.95em" fill="rgb(50, 49, 63)" stroke="none" stroke-width="1px">-5k</text><text style="text-anchor: middle; visibility: inherit; font-family: &quot;Helvetica Neue&quot;, sans-serif; font-size: 12px; font-weight: 200;" x="79.6339999607631" y="0" dx="0em" dy="0.95em" fill="rgb(50, 49, 63)" stroke="none" stroke-width="1px">0</text><text style="text-anchor: middle; visibility: inherit; font-family: &quot;Helvetica Neue&quot;, sans-serif; font-size: 12px; font-weight: 200;" x="159.2679999215262" y="0" dx="0em" dy="0.95em" fill="rgb(50, 49, 63)" stroke="none" stroke-width="1px">5k</text><text style="text-anchor: middle; visibility: inherit; font-family: &quot;Helvetica Neue&quot;, sans-serif; font-size: 12px; font-weight: 200;" x="238.90199988228932" y="0" dx="0em" dy="0.95em" fill="rgb(50, 49, 63)" stroke="none" stroke-width="1px">10k</text><text style="text-anchor: middle; visibility: inherit; font-family: &quot;Helvetica Neue&quot;, sans-serif; font-size: 12px; font-weight: 200;" x="318.5359998430524" y="0" dx="0em" dy="0.95em" fill="rgb(50, 49, 63)" stroke="none" stroke-width="1px">15k</text><text style="text-anchor: middle; visibility: inherit; font-family: &quot;Helvetica Neue&quot;, sans-serif; font-size: 12px; font-weight: 200;" x="398.1699998038156" y="0" dx="0em" dy="0.95em" fill="rgb(50, 49, 63)" stroke="none" stroke-width="1px">20k</text><text style="text-anchor: middle; visibility: inherit; font-family: &quot;Helvetica Neue&quot;, sans-serif; font-size: 12px; font-weight: 200;" x="477.80399976457863" y="0" dx="0em" dy="0.95em" fill="rgb(50, 49, 63)" stroke="none" stroke-width="1px">25k</text><text style="text-anchor: middle; visibility: inherit; font-family: &quot;Helvetica Neue&quot;, sans-serif; font-size: 12px; font-weight: 200;" x="557.4379997253418" y="0" dx="0em" dy="0.95em" fill="rgb(50, 49, 63)" stroke="none" stroke-width="1px">30k</text><text style="text-anchor: middle; visibility: inherit; font-family: &quot;Helvetica Neue&quot;, sans-serif; font-size: 12px; font-weight: 200;" x="637.0719996861048" y="0" dx="0em" dy="0.95em" fill="rgb(50, 49, 63)" stroke="none" stroke-width="1px">35k</text><text style="text-anchor: middle; visibility: inherit; font-family: &quot;Helvetica Neue&quot;, sans-serif; font-size: 12px; font-weight: 200;" x="716.7059996468681" y="0" dx="0em" dy="0.95em" fill="rgb(50, 49, 63)" stroke="none" stroke-width="1px">40k</text><text style="text-anchor: middle; visibility: inherit; font-family: &quot;Helvetica Neue&quot;, sans-serif; font-size: 12px; font-weight: 200;" x="796.3399996076312" y="0" dx="0em" dy="0.95em" fill="rgb(50, 49, 63)" stroke="none" stroke-width="1px">45k</text><text style="text-anchor: middle; visibility: inherit; font-family: &quot;Helvetica Neue&quot;, sans-serif; font-size: 12px; font-weight: 200;" x="875.9739995683942" y="0" dx="0em" dy="0.95em" fill="rgb(50, 49, 63)" stroke="none" stroke-width="1px">50k</text><text style="text-anchor: middle; visibility: inherit; font-family: &quot;Helvetica Neue&quot;, sans-serif; font-size: 12px; font-weight: 200;" x="955.6079995291573" y="0" dx="0em" dy="0.95em" fill="rgb(50, 49, 63)" stroke="none" stroke-width="1px">55k</text><text style="text-anchor: middle; visibility: inherit; font-family: &quot;Helvetica Neue&quot;, sans-serif; font-size: 12px; font-weight: 200;" x="1035.2419994899205" y="0" dx="0em" dy="0.95em" fill="rgb(50, 49, 63)" stroke="none" stroke-width="1px">60k</text><text style="text-anchor: middle; visibility: hidden; font-family: &quot;Helvetica Neue&quot;, sans-serif; font-size: 12px; font-weight: 200;" x="1114.8759994506836" y="0" dx="0em" dy="0.95em" fill="rgb(50, 49, 63)" stroke="none" stroke-width="1px">65k</text></g><line x1="0" y1="0" x2="1114.8759994506836" y2="0" fill="rgb(0, 0, 0)" stroke="rgb(204, 204, 204)" stroke-width="1px"></line></g></g></g></g></svg>